{
	"bufferViews":[{
		"buffer":0,
		"byteOffset":0,
		"byteLength":459474,
		"target":34963
	},
	{
		"buffer":0,
		"byteOffset":459476,
		"byteLength":1226912,
		"target":34962,
		"byteStride":32
	},
	{
		"buffer":1,
		"byteOffset":0,
		"byteLength":12020
	},
	{
		"buffer":2,
		"byteOffset":0,
		"byteLength":110400,
		"target":34963
	},
	{
		"buffer":2,
		"byteOffset":110400,
		"byteLength":303072,
		"target":34962,
		"byteStride":32
	},
	{
		"buffer":3,
		"byteOffset":0,
		"byteLength":12020
	},
	{
		"buffer":4,
		"byteOffset":0,
		"byteLength":158256,
		"target":34963
	},
	{
		"buffer":4,
		"byteOffset":158256,
		"byteLength":433440,
		"target":34962,
		"byteStride":32
	},
	{
		"buffer":5,
		"byteOffset":0,
		"byteLength":12020
	}],
	"asset":{
		"version":"2.0",
		"generator":"Created using the official Cinema 4D glTF Exporter 1.000x284978"
	},
	"scenes":[{
		"nodes":[0]
	}],
	"animations":[{
		"samplers":[{
			"input":4,
			"interpolation":"LINEAR",
			"output":5
		},
		{
			"input":10,
			"interpolation":"LINEAR",
			"output":11
		},
		{
			"input":16,
			"interpolation":"LINEAR",
			"output":17
		}],
		"channels":[{
			"sampler":0,
			"target":{
				"node":4,
				"path":"rotation"
			}
		},
		{
			"sampler":1,
			"target":{
				"node":5,
				"path":"rotation"
			}
		},
		{
			"sampler":2,
			"target":{
				"node":6,
				"path":"rotation"
			}
		}]
	}],
	"nodes":[{
		"translation":[0.0,
		0.0,
		0.0],
		"name":"Animation",
		"rotation":[0.0,
		-0.04118572920560837,
		0.0,
		-0.9991515278816223],
		"scale":[1.0,
		1.0,
		1.0],
		"children":[1,
		2,
		3]
	},
	{
		"name":"Subdivision Surface",
		"children":[4]
	},
	{
		"name":"Subdivision Surface.1",
		"children":[5]
	},
	{
		"name":"Subdivision Surface.2",
		"children":[6]
	},
	{
		"translation":[0.0,
		0.0,
		0.0],
		"name":"Star",
		"mesh":0,
		"rotation":[0.0,
		-0.31427374482154848,
		0.0,
		-0.9493324160575867],
		"scale":[1.0,
		1.0,
		1.0]
	},
	{
		"translation":[0.0,
		0.0,
		0.0],
		"name":"H_Loop",
		"mesh":1,
		"rotation":[0.6050533652305603,
		0.13563509285449983,
		0.3040855824947357,
		-0.7232188582420349],
		"scale":[1.0,
		1.0,
		1.0]
	},
	{
		"translation":[0.0,
		0.0,
		0.0],
		"name":"V_Loop",
		"mesh":2,
		"rotation":[0.6050533652305603,
		-0.13563509285449983,
		0.3040855824947357,
		0.7232188582420349],
		"scale":[1.0,
		1.0,
		1.0]
	}],
	"meshes":[{
		"primitives":[{
			"attributes":{
				"POSITION":1,
				"NORMAL":2,
				"TEXCOORD_0":3
			},
			"indices":0
		}],
		"name":"Star"
	},
	{
		"primitives":[{
			"attributes":{
				"POSITION":7,
				"NORMAL":8,
				"TEXCOORD_0":9
			},
			"indices":6,
			"material":0
		}],
		"name":"H_Loop"
	},
	{
		"primitives":[{
			"attributes":{
				"POSITION":13,
				"NORMAL":14,
				"TEXCOORD_0":15
			},
			"indices":12,
			"material":0
		}],
		"name":"V_Loop"
	}],
	"accessors":[{
		"bufferView":0,
		"type":"SCALAR",
		"componentType":5123,
		"count":229737,
		"byteOffset":0,
		"min":[0],
		"max":[38340]
	},
	{
		"bufferView":1,
		"type":"VEC3",
		"componentType":5126,
		"count":38341,
		"byteOffset":0,
		"min":[-46.6112174987793,
		-46.721431732177737,
		-7.880790710449219],
		"max":[46.55689239501953,
		46.69915771484375,
		7.8814520835876469]
	},
	{
		"bufferView":1,
		"type":"VEC3",
		"componentType":5126,
		"count":38341,
		"byteOffset":12,
		"min":[-0.9993325471878052,
		-0.9986646175384522,
		-0.9997405409812927],
		"max":[0.9993325471878052,
		0.9987610578536987,
		0.9999793767929077]
	},
	{
		"bufferView":1,
		"type":"VEC2",
		"componentType":5126,
		"count":38341,
		"byteOffset":24,
		"min":[0.00018846064631361514,
		0.0006105653010308743],
		"max":[0.9996932744979858,
		0.9994585514068604]
	},
	{
		"bufferView":2,
		"type":"SCALAR",
		"componentType":5126,
		"count":601,
		"byteOffset":0,
		"min":[0.0],
		"max":[10.0]
	},
	{
		"bufferView":2,
		"type":"VEC4",
		"componentType":5126,
		"count":601,
		"byteOffset":2404,
		"min":[0.0,
		-1.0,
		0.0,
		-1.0],
		"max":[2.8082027814235745e-9,
		0.0,
		6.9010974712568899e-9,
		-6.123234262925839e-17]
	},
	{
		"bufferView":3,
		"type":"SCALAR",
		"componentType":5123,
		"count":55200,
		"byteOffset":0,
		"min":[0],
		"max":[9470]
	},
	{
		"bufferView":4,
		"type":"VEC3",
		"componentType":5126,
		"count":9471,
		"byteOffset":0,
		"min":[-105.37335205078125,
		-74.49957275390625,
		-7.933638095855713],
		"max":[105.35566711425781,
		74.49798583984375,
		7.92122220993042]
	},
	{
		"bufferView":4,
		"type":"VEC3",
		"componentType":5126,
		"count":9471,
		"byteOffset":12,
		"min":[-0.9999545216560364,
		-0.9999637007713318,
		-0.9999232888221741],
		"max":[0.9999552369117737,
		0.9999685883522034,
		0.9999996423721314]
	},
	{
		"bufferView":4,
		"type":"VEC2",
		"componentType":5126,
		"count":9471,
		"byteOffset":24,
		"min":[0.0016667083837091923,
		0.0016667083837091923],
		"max":[0.9966915845870972,
		0.258714497089386]
	},
	{
		"bufferView":5,
		"type":"SCALAR",
		"componentType":5126,
		"count":601,
		"byteOffset":0,
		"min":[0.0],
		"max":[10.0]
	},
	{
		"bufferView":5,
		"type":"VEC4",
		"componentType":5126,
		"count":601,
		"byteOffset":2404,
		"min":[0.0,
		-0.7071052193641663,
		-0.30825507640838625,
		-1.0],
		"max":[0.6565445065498352,
		1.0,
		0.30825507640838625,
		0.7911786437034607]
	},
	{
		"bufferView":6,
		"type":"SCALAR",
		"componentType":5123,
		"count":79128,
		"byteOffset":0,
		"min":[0],
		"max":[13544]
	},
	{
		"bufferView":7,
		"type":"VEC3",
		"componentType":5126,
		"count":13545,
		"byteOffset":0,
		"min":[-73.5087890625,
		-104.45404815673828,
		-7.870590686798096],
		"max":[73.48761749267578,
		104.43907928466797,
		7.865710735321045]
	},
	{
		"bufferView":7,
		"type":"VEC3",
		"componentType":5126,
		"count":13545,
		"byteOffset":12,
		"min":[-0.9999613165855408,
		-0.9999961853027344,
		-0.9997302889823914],
		"max":[0.9999972581863403,
		0.9999449849128723,
		0.999301016330719]
	},
	{
		"bufferView":7,
		"type":"VEC2",
		"componentType":5126,
		"count":13545,
		"byteOffset":24,
		"min":[0.0016667083837091923,
		0.0016667083837091923],
		"max":[0.9966915845870972,
		0.26062238216400149]
	},
	{
		"bufferView":8,
		"type":"SCALAR",
		"componentType":5126,
		"count":601,
		"byteOffset":0,
		"min":[0.0],
		"max":[10.0]
	},
	{
		"bufferView":8,
		"type":"VEC4",
		"componentType":5126,
		"count":601,
		"byteOffset":2404,
		"min":[0.0,
		-1.0,
		-0.30825507640838625,
		-1.0],
		"max":[0.6565445065498352,
		0.7071052193641663,
		0.30825507640838625,
		1.0]
	}],
	"buffers":[{
		"uri":"data:application/octet-stream;base64,",
		"byteLength":1686388
	},
	{
		"uri":"data:application/octet-stream;base64,",
		"byteLength":12020
	},
	{
		"uri":"data:application/octet-stream;base64,",
		"byteLength":413472
	},
	{
		"uri":"data:application/octet-stream;base64,",
		"byteLength":12020
	},
	{
		"uri":"data:application/octet-stream;base64,",
		"byteLength":591696
	},
	{
		"uri":"data:application/octet-stream;base64,",
		"byteLength":12020
	}],
	"materials":[{
		"pbrMetallicRoughness":{
			"baseColorFactor":[0.8,
			0.8,
			0.8,
			1.0],
			"metallicFactor":0.0,
			"roughnessFactor":0.5
		},
		"emissiveFactor":[0.0,
		0.0,
		0.0],
		"alphaMode":"OPAQUE",
		"doubleSided":true,
		"name":"Mat"
	}]
}