<svg width="54" height="54" viewBox="0 0 54 54" fill="none" xmlns="http://www.w3.org/2000/svg">
<path d="M24.3 0H4.5C3.30653 0 2.16193 0.474106 1.31802 1.31802C0.474106 2.16193 0 3.30653 0 4.5V49.5C0 50.6935 0.474106 51.8381 1.31802 52.682C2.16193 53.5259 3.30653 54 4.5 54H24.3C25.4935 54 26.6381 53.5259 27.482 52.682C28.3259 51.8381 28.8 50.6935 28.8 49.5V4.5C28.8 3.30653 28.3259 2.16193 27.482 1.31802C26.6381 0.474106 25.4935 0 24.3 0ZM27 49.5C27 50.2161 26.7155 50.9028 26.2092 51.4092C25.7028 51.9155 25.0161 52.2 24.3 52.2H4.5C3.78392 52.2 3.09716 51.9155 2.59081 51.4092C2.08446 50.9028 1.8 50.2161 1.8 49.5V4.5C1.8 3.78392 2.08446 3.09716 2.59081 2.59081C3.09716 2.08446 3.78392 1.8 4.5 1.8H7.2V2.7C7.2 2.93869 7.29482 3.16761 7.4636 3.3364C7.63239 3.50518 7.8613 3.6 8.1 3.6H20.7C20.9387 3.6 21.1676 3.50518 21.3364 3.3364C21.5052 3.16761 21.6 2.93869 21.6 2.7V1.8H24.3C25.0161 1.8 25.7028 2.08446 26.2092 2.59081C26.7155 3.09716 27 3.78392 27 4.5V49.5Z" fill="black"/>
<path d="M49.5 25.2H32.4C32.1613 25.2 31.9324 25.2948 31.7636 25.4636C31.5948 25.6324 31.5 25.8613 31.5 26.1C31.5 26.3387 31.5948 26.5676 31.7636 26.7364C31.9324 26.9052 32.1613 27 32.4 27H49.5C50.2161 27 50.9028 27.2845 51.4092 27.7908C51.9155 28.2972 52.2 28.9839 52.2 29.7V32.4H51.3C51.0613 32.4 50.8324 32.4948 50.6636 32.6636C50.4948 32.8324 50.4 33.0613 50.4 33.3V45.9C50.4 46.1387 50.4948 46.3676 50.6636 46.5364C50.8324 46.7052 51.0613 46.8 51.3 46.8H52.2V49.5C52.2 50.2161 51.9155 50.9028 51.4092 51.4092C50.9028 51.9155 50.2161 52.2 49.5 52.2H30.6C30.3613 52.2 30.1324 52.2948 29.9636 52.4636C29.7948 52.6324 29.7 52.8613 29.7 53.1C29.7 53.3387 29.7948 53.5676 29.9636 53.7364C30.1324 53.9052 30.3613 54 30.6 54H49.5C50.6935 54 51.8381 53.5259 52.682 52.682C53.5259 51.8381 54 50.6935 54 49.5V29.7C54 28.5065 53.5259 27.3619 52.682 26.518C51.8381 25.6741 50.6935 25.2 49.5 25.2Z" fill="black"/>
<path d="M34.3804 10.4392C34.4652 10.5499 34.5741 10.6399 34.6989 10.7023C34.8236 10.7647 34.9609 10.7978 35.1004 10.7992C35.2954 10.8005 35.4853 10.7372 35.6404 10.6192C35.8314 10.4759 35.9576 10.2627 35.9914 10.0264C36.0251 9.79014 35.9636 9.55011 35.8204 9.35916L34.3984 7.45116C37.5623 7.99101 40.5089 9.415 42.8978 11.5586C45.2867 13.7022 47.0203 16.478 47.8984 19.5652C47.889 19.5596 49.5 18.9 49.5 18.9C48.4415 15.6335 46.4718 12.2689 43.8726 10.0251C41.2733 7.78135 38.1085 6.29339 34.7224 5.72316L36.5224 4.35516C36.617 4.28425 36.6966 4.1954 36.7569 4.0937C36.8171 3.992 36.8567 3.87944 36.8734 3.76244C36.8901 3.64544 36.8836 3.52629 36.8543 3.4118C36.8249 3.2973 36.7733 3.18971 36.7024 3.09516C36.6315 3.00061 36.5427 2.92095 36.441 2.86073C36.3393 2.80052 36.2267 2.76092 36.1097 2.74421C35.8734 2.71045 35.6334 2.77194 35.4424 2.91516L31.8424 5.61516C31.6515 5.75838 31.5252 5.97158 31.4915 6.20788C31.4577 6.44418 31.5192 6.6842 31.6624 6.87516L34.3804 10.4392Z" fill="black"/>
</svg>
