<svg width="1600" height="327" viewBox="0 0 1600 327" fill="none" xmlns="http://www.w3.org/2000/svg">
<path d="M17.7519 334.458C18.6623 318.986 23.6692 310.795 30.0417 310.795C32.7728 310.795 35.5039 311.705 38.6901 314.436C46.4281 320.351 55.9868 329.907 81.0216 329.907C109.243 329.907 141.56 309.885 141.56 256.19C141.56 158.355 25.4899 126.047 25.4899 54.6053C25.4899 26.3926 40.0556 10.011 66.0007 10.011C99.2287 10.011 122.898 60.0658 127.905 102.84L131.091 102.385L120.167 0C119.257 9.55592 118.346 16.3816 115.16 19.5669C111.974 22.2972 107.422 23.2073 103.78 20.0219C98.3184 15.4715 88.7596 4.0954 59.6283 4.0954C32.7728 4.0954 9.55873 26.8476 9.55873 55.0604C9.55873 152.895 121.077 170.642 121.077 270.751C121.077 300.784 105.146 324.447 81.4768 324.447C25.0348 324.447 10.9243 236.623 5.00695 195.669L0 196.124L17.7519 334.458Z" fill="white"/>
<path d="M771.676 8.64629V13.1967H773.496C783.055 13.1967 788.517 17.7472 788.517 29.1233V306.814C788.517 318.038 783.055 323.196 773.496 323.196H771.676V327.177H825.387V323.196H823.566C814.007 323.196 809 318.19 809 306.814V122.407H835.4C857.249 122.407 872.27 131.053 872.27 150.165V163.361H876.822V76.4479H872.27V89.6442C872.27 108.756 857.249 117.857 835.4 117.857H809V29.1233C809 17.7472 814.007 13.1967 823.566 13.1967H827.662C866.353 13.1967 888.656 20.4774 900.491 59.1562L906.863 79.6332L910.96 78.2681L886.836 0.455489C886.836 0.455489 883.194 8.64629 870.449 8.64629H771.676Z" fill="white"/>
<path d="M599.62 52.8209C610.999 52.8209 614.186 57.1947 614.641 65.9423V309.682C614.186 318.827 610.999 323.201 599.62 323.201H594.291V327.177H649.689V323.201C638.31 323.201 635.123 318.43 635.123 308.887V184.83L717.509 309.682C720.24 313.26 722.516 317.237 724.337 320.418C726.613 324.791 731.62 327.177 737.082 327.177H771.799V323.201H760.295C748.461 322.803 738.447 306.899 726.613 290.596L665.165 193.578C710.682 193.578 741.633 164.154 741.633 119.223C741.633 70.7136 700.213 48.8447 663.799 48.8447H595.548V52.8209H599.62ZM635.123 56.0018C635.123 54.4113 636.944 52.8209 638.765 52.8209H663.799C682.461 52.8209 722.061 58.7851 722.061 119.223C722.061 180.456 682.461 189.999 663.799 189.999C646.958 189.999 638.765 184.432 635.123 180.059V56.0018Z" fill="white"/>
<path d="M537.723 327.177H594.41V323.201H589.612C580.054 323.201 575.047 318.827 575.047 308.887V67.1351C575.047 56.797 580.054 52.8209 589.612 52.8209H595.571V48.8447H537.723V52.8209H539.544C549.102 52.8209 554.564 56.797 554.564 67.1351V308.887C554.564 318.827 549.102 323.201 539.544 323.201H537.723V327.177Z" fill="white"/>
<path d="M1018.99 327.177H1076.47V323.201H1070.88C1061.32 323.201 1056.31 318.827 1056.31 308.887V67.1351C1056.31 56.797 1061.32 52.8209 1070.88 52.8209H1075.74V48.8447H1018.99V52.8209H1020.81C1030.37 52.8209 1035.83 56.797 1035.83 67.1351V308.887C1035.83 318.827 1030.37 323.201 1020.81 323.201H1018.99V327.177Z" fill="white"/>
<path d="M394.487 187.572C394.487 290.656 427.26 330.059 463.673 330.059C499.632 330.059 533.314 292.248 533.314 187.572C533.314 84.4887 500.087 45.086 463.673 45.086C428.17 45.086 394.487 82.8966 394.487 187.572ZM463.673 49.464C482.335 49.464 513.742 69.3644 513.742 187.572C513.742 305.781 482.335 326.079 463.673 326.079C445.466 326.079 414.06 305.781 414.06 187.572C414.06 69.3644 445.011 49.464 463.673 49.464Z" fill="white"/>
<path d="M1399.29 188.011C1399.29 288.693 1446.67 327.177 1499.32 327.177C1551.3 327.177 1600 290.248 1600 188.011C1600 87.3292 1551.96 48.8447 1499.32 48.8447C1447.99 48.8447 1399.29 85.7743 1399.29 188.011ZM1499.32 53.1207C1526.3 53.1207 1579.52 72.5574 1579.52 188.011C1579.52 303.465 1526.3 323.29 1499.32 323.29C1473 323.29 1419.78 303.465 1419.78 188.011C1419.78 72.5574 1472.34 53.1207 1499.32 53.1207Z" fill="white"/>
<path d="M1449.74 186.736C1449.74 261.199 1473.74 288.097 1499.04 288.097C1510.06 288.097 1516.87 282.717 1522.06 279.603C1524.01 278.47 1525.63 277.904 1527.57 277.904C1531.79 277.904 1535.68 281.302 1536.65 290.645L1547.36 204.573C1546.38 204.573 1545.41 204.573 1544.11 204.29C1539.57 234.868 1536.33 242.513 1530.49 254.121C1521.41 272.525 1511.68 284.982 1499.04 284.982C1486.07 284.982 1463.69 270.826 1463.69 186.736C1463.69 102.646 1486.07 88.2062 1499.04 88.2062C1511.68 88.2062 1524.66 99.8146 1532.44 118.501C1536.65 128.694 1539.25 134.073 1543.14 159.838C1544.44 159.555 1545.09 159.555 1546.38 159.272L1535.68 85.3749C1534.71 93.8688 1531.47 97.2664 1527.9 97.2664C1525.95 97.2664 1524.33 96.417 1522.71 95.0013C1518.49 91.0375 1510.06 85.3749 1499.04 85.3749C1473.74 85.3749 1449.74 112.272 1449.74 186.736Z" fill="white"/>
<path d="M242.761 52.8209H249.589C255.506 52.8209 257.782 55.2066 259.148 60.3756L318.775 327.177H327.878L390.237 67.1351C392.057 60.7732 395.699 52.8209 407.078 52.8209H415.271V48.8447H361.106V52.8209H371.12C382.499 52.8209 387.961 57.5923 385.685 68.328L331.975 287.415L282.361 61.9661C280.996 55.2066 283.727 52.8209 288.734 52.8209H296.472V48.8447H242.761V52.8209Z" fill="white"/>
<path d="M175.849 327.177V323.197H165.836C154.912 323.197 148.994 318.421 151.725 307.675L170.387 230.063H235.932L254.594 314.043C256.415 320.809 253.684 323.197 248.677 323.197H240.939V327.177H294.194V323.197H287.366C281.449 323.197 279.173 320.809 278.263 315.635L216.815 41.408H212.718C212.718 41.408 211.808 61.3084 199.518 62.1044L202.705 76.8306L147.174 308.869C145.353 315.237 141.712 323.197 129.877 323.197H122.139V327.177H175.849ZM204.98 88.3728L235.477 226.083H171.753L204.98 88.3728Z" fill="white"/>
<path d="M909.594 327.177V323.197H899.58C888.656 323.197 882.738 318.421 885.47 307.675L904.132 230.063H969.676L988.338 314.043C990.159 320.809 987.428 323.197 982.421 323.197H974.683V327.177H1027.94V323.197H1021.11C1015.19 323.197 1012.92 320.809 1012.01 315.635L950.559 41.408H946.462C946.462 41.408 945.552 61.3084 933.263 62.1044L936.449 76.8306L880.918 308.869C879.097 315.237 875.456 323.197 863.621 323.197H855.883V327.177H909.594ZM938.724 88.3728L969.221 226.083H905.497L938.724 88.3728Z" fill="white"/>
<path d="M1238.61 48.8417V52.7633H1240.43C1249.99 52.7633 1255.45 56.7408 1255.45 66.6846V308.915C1255.45 318.942 1249.99 323.234 1240.43 323.234H1238.61V327.212H1336.93C1351.04 327.609 1353.77 334.371 1353.77 334.371L1379.71 261.98L1375.16 260.787L1367.42 282.664C1355.13 316.87 1333.29 323.234 1294.6 323.234H1290.5C1280.94 323.234 1275.93 318.859 1275.93 308.915V147.826H1302.33C1324.18 147.826 1339.2 155.781 1339.2 172.486V184.021H1343.75V108.051H1339.2V119.585C1339.2 136.291 1324.18 144.246 1302.33 144.246H1275.93V66.6846C1275.93 56.7408 1280.94 52.7633 1290.5 52.7633H1294.6C1333.29 52.7633 1355.13 59.1271 1367.42 92.936L1373.8 110.835L1377.89 109.642L1353.77 41.6822C1353.77 41.6822 1351.04 48.0462 1337.84 48.8417H1238.61Z" fill="white"/>
<path d="M1080.59 52.8209C1091.97 52.8209 1095.16 57.1947 1095.61 65.9423V309.682C1095.16 318.827 1091.97 323.201 1080.59 323.201H1076.31V327.177H1130.66V323.201C1119.28 323.201 1116.09 318.43 1116.09 308.887V184.83L1198.48 309.682C1201.21 313.261 1203.49 317.237 1205.31 320.418C1207.58 324.792 1212.59 327.177 1218.05 327.177H1243.54V323.201H1241.27C1229.43 322.804 1219.42 306.899 1207.58 290.597L1146.14 193.578C1191.65 193.578 1222.6 164.154 1222.6 119.223C1222.6 70.7137 1181.18 48.8447 1144.77 48.8447H1075.36V52.8209H1080.59ZM1116.09 56.0018C1116.09 54.4113 1117.92 52.8209 1119.74 52.8209H1144.77C1163.43 52.8209 1203.03 58.7852 1203.03 119.223C1203.03 180.456 1163.43 189.999 1144.77 189.999C1127.93 189.999 1119.74 184.433 1116.09 180.059V56.0018Z" fill="white"/>
</svg>
